<?xml version="1.0" encoding="iso-8859-1"?>
<!-- Generator: Adobe Illustrator 19.0.0, SVG Export Plug-In . SVG Version: 6.00 Build 0)  -->
<svg version="1.1" id="Layer_1" xmlns="http://www.w3.org/2000/svg" xmlns:xlink="http://www.w3.org/1999/xlink" x="0px" y="0px"
	 viewBox="0 0 460 460" style="enable-background:new 0 0 460 460;" xml:space="preserve">
<g>
	<path style="fill:#940030;" d="M230,0C102.974,0,0,102.975,0,230c0,98.103,61.42,181.86,147.904,214.916L444.92,147.915
		C411.867,61.425,328.107,0,230,0z"/>
	<path style="fill:#121149;" d="M460,230c0-28.921-5.353-56.588-15.097-82.083l-66.408-66.409L81.506,378.496l66.403,66.403
		C173.407,454.646,201.076,460,230,460C357.026,460,460,357.025,460,230z"/>
	<polygon style="fill:#C2FBFF;" points="94.456,174.141 59.293,209.304 97.574,247.585 146.417,227.027 171.021,174.138 	"/>
	<polygon style="fill:#71E2F0;" points="285.861,365.546 250.699,400.709 212.418,362.428 232.976,313.586 285.864,288.981 	"/>
	<polygon style="fill:#C2001B;" points="129.255,316.605 81.506,378.496 119.618,375.931 128.38,402.716 164.799,366.296 	"/>
	<polygon style="fill:#FF0F27;" points="136.326,323.677 93.707,295.203 57.287,331.622 84.071,340.385 81.506,378.496 	"/>
	<polygon style="fill:#71E2F0;" points="198.281,348.286 164.799,366.296 129.253,330.749 169.141,276.719 	"/>
	<polygon style="fill:#C2FBFF;" points="176.212,283.79 129.253,330.749 93.707,295.203 111.717,261.722 	"/>
	<path style="fill:#61A2B3;" d="M348.421,226.43L212.423,362.428l-50.353-50.353v-14.142L378.494,81.508
		C397.303,130.412,387.354,187.497,348.421,226.43z"/>
	<path style="fill:#71E2F0;" d="M378.494,81.508L162.07,297.932h-14.142l-50.353-50.353l135.998-135.998
		C272.506,72.648,329.591,62.699,378.494,81.508z"/>
	
		<rect x="181.72" y="216.347" transform="matrix(-0.7071 -0.7071 0.7071 -0.7071 137.5845 593.5479)" style="fill:#C2FBFF;" width="20" height="103.864"/>
	<path style="fill:#121149;" d="M342.756,117.246c19.528,19.528,19.528,51.183,0,70.711c-19.524,19.524-51.183,19.528-70.711,0
		l27.499-43.212L342.756,117.246z"/>
	<path style="fill:#940030;" d="M342.756,117.246l-70.711,70.711c-19.528-19.528-19.524-51.187,0-70.711
		C291.574,97.718,323.228,97.718,342.756,117.246z"/>
	<path style="fill:#C2FBFF;" d="M328.614,131.388c11.717,11.717,11.717,30.71,0,42.426c-11.714,11.714-30.71,11.717-42.426,0
		l16.499-25.927L328.614,131.388z"/>
	<path style="fill:#FFFFFF;" d="M328.614,131.388l-42.426,42.426c-11.717-11.717-11.714-30.712,0-42.426
		C297.905,119.672,316.897,119.672,328.614,131.388z"/>
</g>
<g>
</g>
<g>
</g>
<g>
</g>
<g>
</g>
<g>
</g>
<g>
</g>
<g>
</g>
<g>
</g>
<g>
</g>
<g>
</g>
<g>
</g>
<g>
</g>
<g>
</g>
<g>
</g>
<g>
</g>
</svg>
