<?xml version="1.0" encoding="iso-8859-1"?>
<!-- Generator: Adobe Illustrator 19.0.0, SVG Export Plug-In . SVG Version: 6.00 Build 0)  -->
<svg version="1.1" id="Layer_1" xmlns="http://www.w3.org/2000/svg" xmlns:xlink="http://www.w3.org/1999/xlink" x="0px" y="0px"
	 viewBox="0 0 408.76 408.76" style="enable-background:new 0 0 408.76 408.76;" xml:space="preserve">
<g>
	<path style="fill:#E1E1E1;" d="M204.383,408.76c-58.121,0-113.674-24.869-152.417-68.227
		c-33.506-37.476-51.961-85.83-51.961-136.154C0.006,91.683,91.689,0,204.383,0c50.319,0,98.674,18.453,136.164,51.964
		c43.346,38.762,68.207,94.314,68.207,152.415C408.756,317.074,317.075,408.76,204.383,408.76"/>
	<path style="fill:#E1E1E1;" d="M377.757,204.377c0,18.08-2.77,35.52-7.909,51.901c-17.8,56.819-64.041,101.049-122.051,115.988
		c-8.439,2.181-17.14,3.741-26.03,4.62c-5.719,0.582-11.51,0.872-17.38,0.872c-51.39,0-97.559-22.361-129.299-57.881
		c-0.26-0.29-0.521-0.591-0.79-0.881c-26.95-30.56-43.29-70.679-43.29-114.62c0-95.749,77.621-173.379,173.379-173.379
		c43.951,0,84.071,16.35,114.631,43.29c0.29,0.27,0.589,0.53,0.879,0.79c31.701,28.359,52.921,68.179,57.101,112.969
		C377.498,193.428,377.757,198.867,377.757,204.377"/>
	<path style="fill:#D1D1D1;" d="M74.328,319.03c3.682,4.172,7.561,8.166,11.624,11.966c-3.784-3.542-7.41-7.252-10.864-11.118
		C74.837,319.599,74.586,319.31,74.328,319.03 M66.816,309.912c0.007,0.01,0.014,0.018,0.021,0.028
		C66.829,309.93,66.823,309.922,66.816,309.912 M66.237,309.155c0.031,0.041,0.062,0.082,0.093,0.122
		C66.298,309.235,66.268,309.196,66.237,309.155 M65.903,308.714c0.045,0.06,0.094,0.124,0.139,0.184
		C65.996,308.837,65.95,308.776,65.903,308.714 M65.586,308.293c0.072,0.096,0.141,0.188,0.213,0.284
		C65.729,308.483,65.657,308.386,65.586,308.293 M65.296,307.905c0.068,0.092,0.14,0.187,0.208,0.279
		C65.434,308.09,65.366,307.999,65.296,307.905 M65.008,307.517c0.084,0.114,0.169,0.228,0.254,0.341
		C65.176,307.744,65.092,307.631,65.008,307.517 M64.704,307.106c0.086,0.116,0.174,0.236,0.26,0.352
		C64.877,307.34,64.791,307.224,64.704,307.106 M148.921,40.059C80.367,63.19,31.005,128.017,31.005,204.37
		c0,38.447,12.51,73.972,33.687,102.719c-21.177-28.75-33.685-64.27-33.685-102.712C31.007,128.024,80.368,63.192,148.921,40.059"/>
	<path style="fill:#E1E1E1;" d="M204.383,30.999c-19.399,0-38.048,3.184-55.463,9.06C80.368,63.192,31.007,128.024,31.007,204.377
		c0,38.442,12.508,73.962,33.685,102.712c0.005,0.007,0.007,0.01,0.013,0.017c0.087,0.118,0.173,0.234,0.26,0.352
		c0.014,0.019,0.029,0.039,0.043,0.058c0.085,0.114,0.169,0.228,0.254,0.341c0.013,0.017,0.022,0.03,0.035,0.047
		c0.07,0.094,0.138,0.185,0.208,0.279c0.027,0.036,0.055,0.073,0.082,0.109c0.07,0.094,0.143,0.19,0.213,0.284
		c0.034,0.046,0.069,0.092,0.104,0.137c0.047,0.062,0.092,0.123,0.139,0.184c0.065,0.086,0.129,0.17,0.194,0.256
		c0.032,0.042,0.061,0.081,0.093,0.122c0.162,0.213,0.323,0.423,0.486,0.635c0.008,0.01,0.014,0.018,0.021,0.028
		c2.394,3.115,4.894,6.148,7.491,9.09c0.259,0.28,0.509,0.569,0.76,0.848c3.454,3.865,7.08,7.576,10.864,11.118
		c2.121,1.984,4.294,3.917,6.513,5.794c-25.53-30.2-40.919-69.239-40.919-111.879c0-95.749,77.619-173.37,173.379-173.37
		c42.631,0,81.68,15.39,111.87,40.919C305.005,54.869,257.484,30.999,204.383,30.999"/>
	<path style="fill:#D1D1D1;" d="M106.882,231.342l140.915,140.924c58.01-14.939,104.251-59.169,122.051-115.988
		c5.139-16.381,7.909-33.821,7.909-51.901c0-5.51-0.258-10.949-0.759-16.33l0,0l-84.896-84.896"/>
	<path style="fill:#D1D1D1;" d="M301.734,127.471c0,0.058,0.001,0.117,0.001,0.176c0,0.005,0,0.011,0,0.016c0,0.001,0,0.002,0,0.003
		s0,0.003,0,0.004"/>
	<polyline style="fill:#FFFFFF;" points="136.17,213.942 125.301,194.815 260.3,118.099 271.169,137.226 136.17,213.942 	"/>
	<polyline style="fill:#FFFFFF;" points="136.17,191.282 125.301,210.41 260.3,287.126 271.169,267.999 136.17,191.282 	"/>
	<path style="fill:#f17025;" d="M166.734,204.379c0-19.881-16.117-36-36-36s-36,16.119-36,36c0,19.883,16.117,36,36,36
		S166.734,224.261,166.734,204.379"/>
	<path style="fill:#f17025;" d="M301.735,127.663c0-19.883-16.117-36-36-36c-19.881,0-36,16.117-36,36s16.119,36,36,36
		C285.617,163.663,301.735,147.545,301.735,127.663"/>
	<path style="fill:#f17025;" d="M301.735,281.097c0-19.883-16.117-36-36-36c-19.881,0-36,16.117-36,36s16.119,36,36,36
		C285.617,317.097,301.735,300.979,301.735,281.097"/>
	<path style="fill:#8E2E18;" d="M130.529,240.378c0.069,0,0.137,0,0.207,0C130.665,240.379,130.598,240.378,130.529,240.378
		 M130.29,240.376c0.061,0.001,0.123,0.001,0.184,0.002C130.413,240.377,130.351,240.377,130.29,240.376 M130.064,240.373
		c0.067,0.001,0.134,0.002,0.201,0.003C130.197,240.375,130.131,240.374,130.064,240.373 M129.833,240.368
		c0.057,0.001,0.115,0.003,0.172,0.004C129.949,240.37,129.89,240.369,129.833,240.368 M129.596,240.361
		c0.067,0.002,0.135,0.004,0.202,0.006C129.73,240.365,129.663,240.363,129.596,240.361 M129.372,240.353
		c0.057,0.002,0.115,0.004,0.172,0.006C129.486,240.357,129.43,240.355,129.372,240.353 M129.133,240.344
		c0.067,0.003,0.133,0.006,0.2,0.008C129.267,240.349,129.2,240.346,129.133,240.344 M128.922,240.334
		c0.052,0.003,0.103,0.005,0.155,0.007C129.025,240.339,128.974,240.336,128.922,240.334 M128.672,240.321
		c0.065,0.004,0.129,0.007,0.194,0.01C128.801,240.328,128.736,240.324,128.672,240.321 M128.458,240.308
		c0.053,0.003,0.105,0.006,0.158,0.01C128.564,240.314,128.512,240.311,128.458,240.308 M128.206,240.291
		c0.065,0.005,0.132,0.009,0.198,0.013C128.34,240.3,128.273,240.296,128.206,240.291 M128.007,240.277
		c0.052,0.004,0.103,0.008,0.155,0.011C128.109,240.284,128.058,240.281,128.007,240.277 M127.753,240.257
		c0.063,0.005,0.125,0.01,0.188,0.015C127.878,240.267,127.816,240.262,127.753,240.257 M127.551,240.24
		c0.049,0.004,0.096,0.008,0.145,0.012C127.648,240.248,127.598,240.244,127.551,240.24 M127.295,240.217
		c0.061,0.006,0.123,0.011,0.185,0.017C127.418,240.228,127.357,240.222,127.295,240.217 M127.097,240.197
		c0.047,0.005,0.093,0.009,0.14,0.014C127.191,240.206,127.144,240.202,127.097,240.197 M126.853,240.172
		c0.055,0.006,0.111,0.012,0.167,0.017C126.965,240.184,126.909,240.178,126.853,240.172 M126.645,240.149
		c0.045,0.005,0.089,0.01,0.134,0.015C126.735,240.159,126.69,240.154,126.645,240.149 M126.42,240.123
		c0.047,0.006,0.094,0.011,0.141,0.017C126.515,240.134,126.467,240.128,126.42,240.123 M126.195,240.095
		c0.044,0.006,0.087,0.011,0.131,0.016C126.282,240.106,126.238,240.1,126.195,240.095 M125.99,240.069
		c0.038,0.005,0.075,0.01,0.113,0.015C126.065,240.078,126.029,240.074,125.99,240.069 M125.741,240.035
		c0.042,0.006,0.084,0.012,0.126,0.017C125.826,240.047,125.782,240.041,125.741,240.035 M125.546,240.007
		c0.034,0.005,0.069,0.01,0.103,0.015C125.615,240.017,125.58,240.012,125.546,240.007 M125.298,239.971
		c0.035,0.005,0.07,0.01,0.105,0.016C125.368,239.981,125.333,239.976,125.298,239.971 M125.108,239.941
		c0.028,0.005,0.055,0.009,0.084,0.013C125.163,239.95,125.135,239.946,125.108,239.941 M124.851,239.9
		c0.021,0.003,0.041,0.007,0.063,0.01C124.893,239.907,124.872,239.904,124.851,239.9 M124.668,239.869
		c0.022,0.004,0.044,0.008,0.066,0.011C124.712,239.877,124.69,239.873,124.668,239.869 M124.233,239.793
		c0.013,0.002,0.026,0.005,0.04,0.007C124.26,239.798,124.246,239.795,124.233,239.793 M123.795,239.71
		c0.007,0.001,0.013,0.002,0.02,0.004C123.809,239.713,123.801,239.711,123.795,239.71 M166.734,204.172
		c0,0.069,0.001,0.137,0.001,0.207l0,0C166.734,204.31,166.734,204.241,166.734,204.172 M166.732,203.934
		c0.001,0.061,0.001,0.124,0.002,0.185C166.734,204.057,166.732,203.994,166.732,203.934 M166.729,203.707
		c0.001,0.068,0.002,0.134,0.003,0.202C166.732,203.841,166.73,203.774,166.729,203.707 M166.724,203.476
		c0.001,0.058,0.003,0.116,0.004,0.174C166.727,203.591,166.726,203.534,166.724,203.476 M166.717,203.239
		c0.002,0.067,0.004,0.136,0.006,0.203C166.721,203.374,166.719,203.307,166.717,203.239 M166.71,203.013
		c0.002,0.059,0.004,0.117,0.006,0.176C166.714,203.131,166.712,203.072,166.71,203.013 M166.7,202.776
		c0.003,0.067,0.006,0.135,0.008,0.202C166.706,202.91,166.702,202.843,166.7,202.776 M166.689,202.562
		c0.003,0.054,0.005,0.108,0.008,0.162C166.696,202.669,166.693,202.615,166.689,202.562 M166.676,202.313
		c0.004,0.066,0.007,0.133,0.011,0.198C166.685,202.446,166.68,202.379,166.676,202.313 M166.663,202.097
		c0.003,0.056,0.007,0.112,0.01,0.168C166.671,202.209,166.668,202.153,166.663,202.097 M166.648,201.847
		c0.005,0.068,0.009,0.136,0.014,0.204C166.657,201.983,166.652,201.915,166.648,201.847 M166.633,201.643
		c0.004,0.057,0.008,0.114,0.012,0.171C166.641,201.757,166.637,201.699,166.633,201.643 M166.613,201.392
		c0.005,0.065,0.011,0.132,0.016,0.197C166.624,201.523,166.618,201.458,166.613,201.392 M166.596,201.185
		c0.005,0.056,0.01,0.111,0.014,0.167C166.605,201.296,166.601,201.241,166.596,201.185 M166.573,200.933
		c0.006,0.066,0.012,0.13,0.018,0.197C166.585,201.064,166.579,200.999,166.573,200.933 M166.553,200.73
		c0.006,0.057,0.011,0.112,0.017,0.169C166.564,200.843,166.558,200.787,166.553,200.73 M166.525,200.476
		c0.007,0.066,0.014,0.13,0.021,0.196C166.54,200.607,166.533,200.542,166.525,200.476 M166.504,200.277
		c0.007,0.059,0.013,0.117,0.02,0.176C166.517,200.394,166.51,200.335,166.504,200.277 M166.474,200.02
		c0.008,0.066,0.016,0.131,0.023,0.197C166.49,200.152,166.482,200.086,166.474,200.02 M166.45,199.824
		c0.008,0.063,0.016,0.128,0.024,0.192C166.465,199.952,166.458,199.888,166.45,199.824 M166.42,199.593
		c0.007,0.056,0.015,0.113,0.022,0.169C166.435,199.706,166.428,199.65,166.42,199.593 M166.39,199.369
		c0.009,0.064,0.018,0.129,0.026,0.194C166.407,199.498,166.398,199.434,166.39,199.369 M166.357,199.149
		c0.008,0.055,0.016,0.109,0.023,0.164C166.374,199.259,166.366,199.203,166.357,199.149 M166.325,198.924
		c0.01,0.063,0.019,0.125,0.028,0.188C166.344,199.049,166.333,198.986,166.325,198.924 M166.292,198.711
		c0.008,0.049,0.016,0.099,0.023,0.148C166.307,198.811,166.299,198.76,166.292,198.711 M166.254,198.476
		c0.01,0.062,0.02,0.122,0.03,0.183C166.273,198.598,166.264,198.537,166.254,198.476 M166.219,198.269
		c0.008,0.046,0.016,0.094,0.024,0.141C166.234,198.362,166.227,198.315,166.219,198.269 M166.178,198.033
		c0.01,0.059,0.021,0.119,0.031,0.178C166.199,198.152,166.189,198.093,166.178,198.033 M166.142,197.836
		c0.007,0.039,0.015,0.081,0.022,0.12C166.157,197.916,166.148,197.876,166.142,197.836 M166.096,197.588
		c0.011,0.056,0.022,0.115,0.032,0.171C166.117,197.702,166.107,197.645,166.096,197.588 M166.059,197.396
		c0.007,0.038,0.015,0.075,0.022,0.113C166.073,197.471,166.066,197.434,166.059,197.396 M166.01,197.16
		c0.01,0.052,0.021,0.102,0.031,0.153C166.032,197.262,166.021,197.211,166.01,197.16 M165.979,197.003L165.979,197.003
		c0.003,0.017,0.008,0.037,0.011,0.054C165.986,197.038,165.982,197.021,165.979,197.003"/>
	<path style="fill:#C2C2C2;" d="M165.969,196.961c0.003,0.015,0.006,0.027,0.009,0.042l0,0
		C165.976,196.989,165.973,196.975,165.969,196.961 M165.928,196.762c0.007,0.034,0.015,0.068,0.022,0.102
		C165.943,196.83,165.935,196.796,165.928,196.762 M165.876,196.526c0.006,0.027,0.012,0.055,0.018,0.083
		C165.889,196.581,165.882,196.552,165.876,196.526 M165.836,196.349c0.005,0.024,0.011,0.047,0.016,0.071
		C165.846,196.396,165.842,196.373,165.836,196.349 M165.777,196.092c0.005,0.02,0.01,0.042,0.015,0.062
		C165.786,196.133,165.782,196.113,165.777,196.092 M165.736,195.921c0.005,0.019,0.009,0.036,0.013,0.055
		C165.745,195.958,165.741,195.94,165.736,195.921 M165.672,195.66c0.003,0.013,0.007,0.028,0.01,0.041
		C165.678,195.687,165.676,195.673,165.672,195.66 M165.632,195.5c0.003,0.01,0.006,0.022,0.008,0.032
		C165.637,195.521,165.635,195.511,165.632,195.5 M165.562,195.229c0.001,0.002,0.001,0.002,0.001,0.004
		C165.563,195.232,165.563,195.231,165.562,195.229 M165.521,195.076c0.001,0.004,0.002,0.008,0.003,0.013
		C165.523,195.084,165.523,195.08,165.521,195.076"/>
	<path style="fill:#a14b19;" d="M148.336,172.969c2.919,5.2,4.591,11.209,4.591,17.6c0,19.879-16.121,36-36,36
		c-6.391,0-12.4-1.671-17.6-4.591c5.084,9.047,13.956,15.677,24.469,17.731c0.006,0.001,0.014,0.003,0.02,0.004
		c0.139,0.027,0.279,0.053,0.418,0.079c0.013,0.002,0.027,0.005,0.04,0.007c0.131,0.024,0.263,0.047,0.395,0.069
		c0.022,0.004,0.044,0.008,0.066,0.011c0.039,0.007,0.078,0.013,0.118,0.02c0.021,0.003,0.042,0.007,0.063,0.01
		c0.064,0.01,0.13,0.021,0.194,0.031c0.028,0.004,0.056,0.009,0.084,0.013c0.035,0.005,0.071,0.011,0.107,0.016
		c0.035,0.005,0.07,0.01,0.105,0.016c0.048,0.007,0.095,0.014,0.144,0.021c0.034,0.005,0.069,0.01,0.103,0.015
		c0.031,0.004,0.061,0.009,0.092,0.013c0.041,0.006,0.085,0.012,0.126,0.017c0.04,0.005,0.082,0.011,0.123,0.016
		c0.039,0.005,0.074,0.01,0.113,0.015c0.03,0.004,0.061,0.008,0.091,0.012c0.043,0.005,0.087,0.011,0.131,0.016
		c0.031,0.004,0.064,0.008,0.095,0.011c0.047,0.006,0.094,0.011,0.141,0.017c0.028,0.003,0.056,0.006,0.084,0.01
		c0.045,0.005,0.089,0.01,0.134,0.015c0.025,0.003,0.049,0.005,0.074,0.008c0.055,0.006,0.111,0.012,0.167,0.017
		c0.026,0.003,0.052,0.005,0.077,0.008c0.046,0.005,0.094,0.009,0.14,0.014c0.02,0.002,0.038,0.004,0.058,0.006
		c0.062,0.006,0.123,0.011,0.185,0.017c0.023,0.002,0.047,0.004,0.071,0.006c0.047,0.004,0.098,0.008,0.145,0.012
		c0.019,0.001,0.038,0.003,0.057,0.005c0.063,0.005,0.125,0.01,0.188,0.015c0.022,0.002,0.044,0.003,0.066,0.005
		c0.051,0.004,0.103,0.008,0.155,0.011c0.015,0.001,0.031,0.002,0.046,0.003c0.066,0.005,0.132,0.009,0.198,0.013
		c0.018,0.001,0.036,0.002,0.054,0.003c0.053,0.003,0.106,0.006,0.158,0.01c0.019,0.001,0.036,0.002,0.055,0.003
		c0.065,0.004,0.13,0.007,0.194,0.01c0.018,0.001,0.038,0.002,0.056,0.003c0.052,0.003,0.103,0.005,0.155,0.007
		c0.019,0.001,0.038,0.002,0.057,0.003c0.066,0.003,0.133,0.006,0.2,0.008c0.013,0,0.026,0.001,0.039,0.001
		c0.058,0.002,0.115,0.004,0.172,0.006c0.017,0,0.034,0.001,0.051,0.002c0.067,0.002,0.135,0.004,0.202,0.006
		c0.012,0,0.023,0,0.035,0.001c0.057,0.001,0.115,0.003,0.172,0.004c0.019,0,0.039,0.001,0.058,0.001
		c0.068,0.001,0.134,0.002,0.201,0.003c0.009,0,0.017,0,0.026,0c0.06,0.001,0.123,0.001,0.184,0.002c0.018,0,0.036,0,0.054,0
		c0.069,0,0.137,0,0.207,0l0,0c19.881,0,36-16.119,36-36c0-0.069,0-0.138-0.001-0.207c0-0.018,0-0.036,0-0.054
		c0-0.061-0.001-0.124-0.002-0.185c0-0.009,0-0.016,0-0.025c-0.001-0.068-0.002-0.134-0.003-0.202c0-0.019-0.001-0.038-0.001-0.057
		c-0.001-0.058-0.002-0.116-0.004-0.174c0-0.01-0.001-0.023-0.001-0.033c-0.002-0.067-0.004-0.136-0.006-0.203
		c0-0.016-0.001-0.033-0.002-0.049c-0.002-0.059-0.004-0.117-0.006-0.176c0-0.012-0.001-0.024-0.001-0.036
		c-0.003-0.067-0.005-0.135-0.008-0.202c-0.001-0.017-0.002-0.035-0.002-0.052c-0.002-0.054-0.005-0.108-0.008-0.162
		c-0.001-0.017-0.002-0.033-0.002-0.05c-0.003-0.066-0.007-0.133-0.011-0.198c-0.001-0.016-0.002-0.032-0.003-0.048
		c-0.003-0.056-0.007-0.112-0.01-0.168c-0.001-0.015-0.002-0.03-0.003-0.045c-0.004-0.068-0.009-0.136-0.014-0.204
		c-0.001-0.011-0.002-0.022-0.002-0.034c-0.004-0.057-0.008-0.114-0.012-0.171c-0.001-0.018-0.003-0.036-0.004-0.054
		c-0.005-0.065-0.01-0.132-0.016-0.197c-0.001-0.013-0.002-0.027-0.003-0.04c-0.005-0.056-0.009-0.111-0.014-0.167
		c-0.002-0.019-0.003-0.037-0.005-0.055c-0.006-0.066-0.012-0.13-0.018-0.197c-0.001-0.011-0.002-0.022-0.003-0.033
		c-0.005-0.057-0.011-0.113-0.017-0.169c-0.002-0.019-0.004-0.039-0.006-0.058c-0.007-0.066-0.013-0.13-0.021-0.196
		c-0.001-0.008-0.002-0.016-0.003-0.024c-0.006-0.059-0.013-0.117-0.02-0.176c-0.002-0.02-0.005-0.04-0.007-0.06
		c-0.008-0.066-0.015-0.131-0.023-0.197c0-0.001,0-0.003-0.001-0.004c-0.008-0.063-0.016-0.128-0.024-0.192
		c-0.003-0.021-0.005-0.042-0.008-0.062c-0.007-0.056-0.015-0.113-0.022-0.169c-0.001-0.01-0.003-0.021-0.004-0.03
		c-0.009-0.064-0.018-0.13-0.026-0.194c-0.003-0.019-0.005-0.038-0.008-0.057c-0.008-0.055-0.015-0.109-0.023-0.164
		c-0.002-0.013-0.004-0.025-0.005-0.037c-0.009-0.063-0.019-0.125-0.028-0.188c-0.003-0.022-0.006-0.042-0.01-0.064
		c-0.008-0.049-0.015-0.099-0.023-0.148c-0.003-0.017-0.005-0.034-0.008-0.052c-0.01-0.062-0.02-0.122-0.03-0.183
		c-0.004-0.022-0.008-0.045-0.011-0.067c-0.008-0.046-0.016-0.094-0.024-0.141c-0.003-0.019-0.006-0.038-0.01-0.057
		c-0.01-0.059-0.021-0.119-0.031-0.178c-0.005-0.026-0.009-0.052-0.014-0.078c-0.007-0.039-0.015-0.08-0.022-0.12
		c-0.005-0.026-0.009-0.051-0.014-0.076c-0.01-0.056-0.021-0.115-0.032-0.171c-0.005-0.026-0.01-0.053-0.015-0.079
		c-0.007-0.038-0.015-0.075-0.022-0.113c-0.005-0.027-0.011-0.056-0.016-0.083c-0.01-0.052-0.02-0.102-0.031-0.153
		c-0.007-0.034-0.014-0.069-0.021-0.103c-0.004-0.017-0.008-0.037-0.011-0.054c-0.003-0.015-0.006-0.027-0.009-0.042
		c-0.007-0.032-0.014-0.065-0.02-0.097c-0.007-0.034-0.014-0.067-0.022-0.102c-0.011-0.052-0.022-0.102-0.033-0.154
		c-0.006-0.027-0.012-0.056-0.018-0.083c-0.008-0.036-0.016-0.07-0.024-0.105c-0.005-0.024-0.011-0.047-0.016-0.071
		c-0.015-0.065-0.03-0.13-0.045-0.195c-0.005-0.02-0.01-0.042-0.015-0.062c-0.009-0.039-0.018-0.077-0.027-0.116
		c-0.005-0.019-0.009-0.035-0.013-0.055c-0.018-0.073-0.036-0.147-0.054-0.22c-0.003-0.013-0.007-0.028-0.01-0.041
		c-0.011-0.043-0.021-0.085-0.032-0.127c-0.003-0.01-0.006-0.022-0.008-0.032c-0.022-0.089-0.046-0.178-0.069-0.266
		c-0.001-0.002-0.001-0.002-0.001-0.004c-0.012-0.047-0.025-0.094-0.037-0.141c-0.001-0.005-0.002-0.009-0.003-0.013
		C162.993,185.602,156.697,177.667,148.336,172.969"/>
	<path style="fill:#8E2E18;" d="M301.735,127.666c-0.002,19.881-16.119,35.997-36,35.997c-9.398,0-17.956-3.602-24.367-9.501
		l-0.004,0.002c6.414,5.903,14.972,9.506,24.372,9.506c19.881,0,36-16.121,36-36C301.735,127.668,301.735,127.667,301.735,127.666
		 M301.734,127.471c0,0.059,0.001,0.116,0.001,0.176C301.735,127.588,301.734,127.529,301.734,127.471 M301.733,127.279
		c0,0.036,0.001,0.072,0.001,0.108C301.733,127.35,301.733,127.315,301.733,127.279 M301.729,127.031c0,0.015,0,0.03,0.001,0.044
		C301.73,127.061,301.729,127.044,301.729,127.031 M301.726,126.881L301.726,126.881L301.726,126.881"/>
	<path style="fill:#C2C2C2;" d="M234.316,145.259c1.871,3.332,4.256,6.337,7.047,8.905l0.004-0.002
		c-2.791-2.567-5.174-5.569-7.044-8.899C234.321,145.262,234.318,145.26,234.316,145.259"/>
	<path style="fill:#a14b19;" d="M283.335,96.259c2.931,5.2,4.591,11.2,4.591,17.591c0,19.89-16.119,36-36,36
		c-6.397,0-12.394-1.67-17.602-4.587c1.87,3.33,4.253,6.332,7.044,8.899c6.411,5.898,14.969,9.501,24.367,9.501
		c19.881,0,35.998-16.116,36-35.997c0-0.007,0-0.013,0-0.019c0-0.06,0-0.116-0.001-0.176c0-0.028,0-0.056-0.001-0.084
		c0-0.036-0.001-0.071-0.001-0.108c-0.001-0.068-0.002-0.136-0.003-0.204c0-0.014,0-0.029-0.001-0.044
		c-0.001-0.05-0.002-0.099-0.003-0.149v-0.001C301.444,113.721,294.101,102.299,283.335,96.259"/>
	<path style="fill:#8E2E18;" d="M245.628,310.962c0.113,0.076,0.226,0.152,0.34,0.227
		C245.854,311.114,245.741,311.039,245.628,310.962 M245.464,310.851c0.04,0.027,0.081,0.055,0.121,0.082
		C245.545,310.906,245.504,310.878,245.464,310.851 M245.29,310.731c0.03,0.021,0.058,0.04,0.088,0.06
		C245.346,310.771,245.318,310.752,245.29,310.731 M245.158,310.64c0.013,0.009,0.028,0.02,0.041,0.029
		C245.185,310.659,245.172,310.65,245.158,310.64 M301.735,281.097c0,19.883-16.117,36-36,36c-7.3,0-14.093-2.173-19.767-5.908
		c5.673,3.736,12.465,5.91,19.767,5.91c19.881,0,36-16.119,36-36l0,0 M301.734,280.894c0,0.067,0.001,0.132,0.001,0.199
		C301.735,281.026,301.735,280.96,301.734,280.894 M301.732,280.667c0.001,0.054,0.001,0.11,0.002,0.165
		C301.733,280.777,301.733,280.722,301.732,280.667 M301.729,280.435c0.001,0.057,0.002,0.116,0.003,0.173
		C301.731,280.55,301.73,280.492,301.729,280.435 M301.724,280.225c0.001,0.042,0.002,0.086,0.003,0.129
		C301.726,280.311,301.725,280.269,301.724,280.225 M301.717,279.974c0.002,0.054,0.003,0.107,0.005,0.161
		C301.721,280.081,301.719,280.028,301.717,279.974 M301.711,279.772c0.001,0.036,0.003,0.075,0.004,0.111
		C301.713,279.847,301.712,279.809,301.711,279.772 M301.701,279.516c0.002,0.044,0.004,0.087,0.005,0.131
		C301.704,279.604,301.702,279.559,301.701,279.516 M301.692,279.332c0.001,0.024,0.002,0.046,0.003,0.07
		C301.694,279.378,301.693,279.355,301.692,279.332 M301.667,278.873c0.001,0.018,0.002,0.039,0.003,0.057
		C301.669,278.91,301.668,278.893,301.667,278.873 M301.637,278.426c0.001,0.007,0.001,0.016,0.002,0.023
		C301.638,278.441,301.638,278.433,301.637,278.426"/>
	<path style="fill:#a14b19;" d="M283.335,249.689c2.921,5.2,4.591,11.209,4.591,17.6c0,19.879-16.119,36-36,36
		c-6.389,0-12.4-1.671-17.6-4.591c2.67,4.751,6.384,8.836,10.833,11.941c0.014,0.01,0.027,0.019,0.041,0.029
		c0.03,0.021,0.06,0.042,0.09,0.063s0.058,0.04,0.088,0.06c0.029,0.02,0.058,0.04,0.087,0.06c0.04,0.027,0.081,0.055,0.121,0.082
		c0.015,0.01,0.028,0.019,0.043,0.029c0.113,0.076,0.226,0.152,0.34,0.227l0,0c5.674,3.735,12.467,5.908,19.767,5.908
		c19.883,0,36-16.117,36-36c0,0,0-0.002,0-0.004c0-0.067,0-0.132-0.001-0.199c0-0.021,0-0.041,0-0.062
		c0-0.054-0.001-0.11-0.002-0.165c0-0.02,0-0.04-0.001-0.06c-0.001-0.057-0.002-0.116-0.003-0.173c0-0.027-0.001-0.054-0.002-0.081
		c-0.001-0.042-0.002-0.086-0.003-0.129c-0.001-0.03-0.001-0.061-0.002-0.091c-0.001-0.054-0.003-0.107-0.005-0.161
		c-0.001-0.03-0.002-0.06-0.003-0.09c-0.001-0.036-0.003-0.075-0.004-0.111c-0.002-0.042-0.003-0.083-0.005-0.126
		c-0.002-0.044-0.003-0.087-0.005-0.131c-0.002-0.038-0.003-0.076-0.005-0.114c-0.001-0.024-0.002-0.046-0.003-0.07
		c-0.006-0.133-0.014-0.269-0.022-0.402c-0.001-0.018-0.002-0.039-0.003-0.057c-0.009-0.142-0.018-0.283-0.028-0.425
		c0-0.007-0.001-0.016-0.002-0.023C300.73,266.068,293.583,255.448,283.335,249.689"/>
</g>
<g>
</g>
<g>
</g>
<g>
</g>
<g>
</g>
<g>
</g>
<g>
</g>
<g>
</g>
<g>
</g>
<g>
</g>
<g>
</g>
<g>
</g>
<g>
</g>
<g>
</g>
<g>
</g>
<g>
</g>
</svg>
