<?xml version="1.0" encoding="iso-8859-1"?>
<!-- Generator: Adobe Illustrator 19.0.0, SVG Export Plug-In . SVG Version: 6.00 Build 0)  -->
<svg version="1.1" id="Layer_1" xmlns="http://www.w3.org/2000/svg" xmlns:xlink="http://www.w3.org/1999/xlink" x="0px" y="0px"
	 viewBox="0 0 512 512" style="enable-background:new 0 0 512 512;" xml:space="preserve">
<circle style="fill:#E1E1E1;" cx="256" cy="256" r="256"/>
<path style="fill:#D1D1D1;" d="M269.621,511.638c132.406-6.942,238.151-114.491,242.241-247.634l-151.948-151.95l-156.222,95.229
	l-81.294,23.53l63.055,63.055l-48.211,85.392L269.621,511.638z"/>
<rect x="137.24" y="201.128" style="fill:#FC6F58;" width="237.52" height="178.131"/>
<rect x="256.293" y="201.128" style="fill:#F1543F;" width="118.467" height="178.131"/>
<rect x="226.314" y="290.185" style="fill:#FFD15D;" width="59.378" height="89.069"/>
<rect x="256.293" y="290.185" style="fill:#F9B54C;" width="29.393" height="89.069"/>
<polygon style="fill:#FFD15D;" points="389.603,230.812 122.397,230.812 152.086,112.054 359.914,112.054 "/>
<polygon style="fill:#F9B54C;" points="359.914,112.054 256.288,112.054 256.288,230.812 389.603,230.812 "/>
<rect x="161.754" y="250.156" style="fill:#E6F3FF;" width="50.39" height="50.39"/>
<rect x="299.856" y="250.156" style="fill:#CFDBE6;" width="50.39" height="50.39"/>
<g>
</g>
<g>
</g>
<g>
</g>
<g>
</g>
<g>
</g>
<g>
</g>
<g>
</g>
<g>
</g>
<g>
</g>
<g>
</g>
<g>
</g>
<g>
</g>
<g>
</g>
<g>
</g>
<g>
</g>
</svg>
