<?xml version="1.0" encoding="iso-8859-1"?>
<!-- Generator: Adobe Illustrator 19.0.0, SVG Export Plug-In . SVG Version: 6.00 Build 0)  -->
<svg version="1.1" id="Layer_1" xmlns="http://www.w3.org/2000/svg" xmlns:xlink="http://www.w3.org/1999/xlink" x="0px" y="0px"
	 viewBox="0 0 512 512" style="enable-background:new 0 0 512 512;" xml:space="preserve">
<circle style="fill:#E1E1E1;" cx="256" cy="256" r="256"/>
<path style="fill:#D1D1D1;" d="M511.86,247.903L380.983,117.026L165.038,381.149L293.19,509.3C416.947,491.287,512,384.752,512,256
	C512,253.29,511.943,250.592,511.86,247.903z"/>
<path style="fill:#f17025;" d="M195.662,394.974h120.677c22.507,0,41.353-18.965,43.594-43.868l21.051-234.081H131.017
	l21.052,234.081C154.309,376.01,173.154,394.974,195.662,394.974z"/>
<path style="fill:#a14b19;" d="M255.426,117.026v277.947h60.912c22.507,0,41.353-18.965,43.594-43.868l21.051-234.079H255.426z"/>
<polygon style="fill:#D15005;" points="380.983,117.026 131.017,117.026 136.413,177.03 375.587,177.03 "/>
<polygon style="fill:#772222;" points="380.983,117.026 255.426,117.026 255.426,177.03 375.587,177.03 "/>
<g>
</g>
<g>
</g>
<g>
</g>
<g>
</g>
<g>
</g>
<g>
</g>
<g>
</g>
<g>
</g>
<g>
</g>
<g>
</g>
<g>
</g>
<g>
</g>
<g>
</g>
<g>
</g>
<g>
</g>
</svg>
